<?xml version="1.0" encoding="UTF-8"?>
<svg version="1.1" xmlns="http://www.w3.org/2000/svg" width="496" height="503">
<path d="M0 0 C4.81050288 3.38001123 7.27900423 6.69176947 9.6875 12.0625 C10.36450688 13.49277738 11.04570937 14.92107421 11.73046875 16.34765625 C12.2726001 17.47905029 12.2726001 17.47905029 12.82568359 18.63330078 C14.90928631 22.83256163 17.21350195 26.90878489 19.5 31 C23.12014152 37.51329751 26.59879981 44.06383066 29.89086914 50.74829102 C33.13355899 57.31813672 36.53174962 63.80320605 39.93408203 70.29150391 C43.08578852 76.31035388 46.20816421 82.34326187 49.3046875 88.390625 C50.05802188 89.86010855 50.81135848 91.32959097 51.56469727 92.79907227 C52.67572169 94.96667999 53.78564338 97.13481267 54.89181519 99.30490112 C58.87503671 107.11852811 62.97668876 114.79308652 67.45288086 122.34008789 C69.59508184 126.02310504 71.50966657 129.79615769 73.375 133.625 C73.71660156 134.31722656 74.05820312 135.00945312 74.41015625 135.72265625 C75.27687722 137.48007862 76.13882935 139.23985121 77 141 C77.33 141.66 77.66 142.32 78 143 C78.69019608 150.01699346 78.69019608 150.01699346 75.9375 153.9375 C72.35800742 156.45076075 70.36375925 156.80064044 66 157 C63.03068038 156.26028235 60.30138838 155.09429181 57.5 153.875 C55.90226451 153.2157784 54.30328381 152.55956737 52.703125 151.90625 C51.91099609 151.58011719 51.11886719 151.25398437 50.30273438 150.91796875 C45.94284148 149.17992833 41.48329153 147.77120235 37.015625 146.3359375 C33.23320573 145.10559666 29.4928962 143.75846017 25.74902344 142.41650391 C25.09940643 142.18405472 24.44978943 141.95160553 23.78048706 141.71211243 C22.18684932 141.14180509 20.59340524 140.57095662 19 140 C18.99635437 140.81352936 18.99270874 141.62705872 18.98895264 142.46524048 C18.95102957 150.14546537 18.89412854 157.82520748 18.81609726 165.50512123 C18.77664803 169.45313769 18.74444729 173.40093197 18.72900391 177.34912109 C18.71382007 181.16194987 18.67934507 184.97416775 18.63169098 188.78672409 C18.61689476 190.23865819 18.60895999 191.69067951 18.60811615 193.14268875 C18.60573918 195.18253362 18.57860688 197.22070005 18.54589844 199.26025391 C18.53257477 200.99899277 18.53257477 200.99899277 18.51898193 202.77285767 C17.88788215 206.69717311 16.4316065 208.89318064 14 212 C9.31641934 215.33757865 3.13145618 214.40927784 -2.375 214.4375 C-4.06109375 214.48680664 -4.06109375 214.48680664 -5.78125 214.53710938 C-15.03451021 214.5972665 -15.03451021 214.5972665 -18.7265625 211.66015625 C-23.19247156 206.43458225 -22.349133 200.2606933 -22.5625 193.6875 C-22.6049585 192.43686768 -22.64741699 191.18623535 -22.69116211 189.89770508 C-23.2230077 172.93782719 -23.08891195 155.96576816 -23 139 C-23.70906494 139.27674561 -24.41812988 139.55349121 -25.14868164 139.83862305 C-49.80461325 149.44314282 -49.80461325 149.44314282 -61.06640625 153.03515625 C-63.6272381 153.87740055 -66.07827323 154.83412286 -68.5625 155.875 C-72.34603793 157.11324878 -74.24567139 157.27988475 -78 156 C-81.34011229 153.74316737 -81.93679195 152.23307967 -83 148.3125 C-83.25650408 145.02094915 -82.73434057 142.87678153 -81.34375 139.8984375 C-80.79267578 138.71809937 -80.79267578 138.71809937 -80.23046875 137.51391602 C-78.05794314 133.07532551 -75.79972954 128.68639204 -73.5 124.3125 C-72.98026611 123.31935791 -72.46053223 122.32621582 -71.92504883 121.30297852 C-67.75693744 113.3683429 -63.4689301 105.50237876 -59.15478516 97.64648438 C-55.88438865 91.673611 -52.77113806 85.65573007 -49.76953125 79.54296875 C-47.60074878 75.20061621 -45.33495065 70.91376049 -43.0625 66.625 C-40.01398807 60.86600298 -37.01553546 55.0899075 -34.125 49.25 C-27.34763356 35.58696899 -20.31606443 22.03609233 -12.9375 8.6875 C-12.57986572 8.03007812 -12.22223145 7.37265625 -11.85375977 6.6953125 C-8.81570885 1.27612608 -6.34536666 -0.87093268 0 0 Z " fill="#298969" transform="translate(243,225)"/>
<path d="M0 0 C1.04032483 -0.00644889 2.08064967 -0.01289778 3.1524995 -0.0195421 C4.87250652 -0.01489629 4.87250652 -0.01489629 6.62726116 -0.01015663 C8.45010389 -0.0169533 8.45010389 -0.0169533 10.30977172 -0.02388728 C13.68914929 -0.03438215 17.06831458 -0.03585294 20.44769347 -0.03349853 C24.08993192 -0.03309119 27.73213837 -0.04412157 31.37436199 -0.05361366 C38.51279284 -0.07024322 45.65119067 -0.0757241 52.78963927 -0.07683842 C58.5913905 -0.07778804 64.39313081 -0.08189403 70.19487858 -0.08823967 C86.63734916 -0.105858 103.07979361 -0.1150777 119.5222737 -0.11357872 C120.40912583 -0.11349881 121.29597796 -0.1134189 122.2097044 -0.11333656 C123.54160365 -0.11321392 123.54160365 -0.11321392 124.90040996 -0.1130888 C139.29069872 -0.1122759 153.6808828 -0.13141301 168.07114128 -0.1596133 C182.84053478 -0.18832855 197.60987721 -0.20215432 212.37929934 -0.20042574 C220.67376796 -0.19976133 228.96812688 -0.20527575 237.26257038 -0.22678185 C244.32501866 -0.24497589 251.38730752 -0.24935574 258.44976906 -0.235763 C262.05359404 -0.22922405 265.65711304 -0.22914904 269.26090908 -0.2464695 C273.16710442 -0.26505029 277.07285083 -0.25266961 280.9790678 -0.23720741 C282.68903658 -0.2526381 282.68903658 -0.2526381 284.43355018 -0.26838052 C290.60310116 -0.21424217 294.31289745 0.09947592 298.99363995 4.25726891 C302.41339179 8.13298767 302.44824358 11.92453619 302.2787962 16.89008141 C301.76785541 21.13158983 299.87695881 23.26541168 297.12249184 26.35833549 C292.29356793 29.28906065 287.66517101 28.80857771 282.1195097 28.76520348 C280.2941037 28.77456342 280.2941037 28.77456342 278.43182081 28.78411245 C275.05671765 28.79731064 271.68250434 28.79255624 268.30745518 28.78016758 C264.66659961 28.77112272 261.02582219 28.78508405 257.38498211 28.79608727 C250.2534609 28.81388371 243.12210798 28.81002739 235.99058015 28.7984367 C230.19458832 28.78940635 224.39864368 28.78817665 218.60264683 28.79253197 C217.36567503 28.79345137 217.36567503 28.79345137 216.10371391 28.79438934 C214.42848995 28.79566823 212.75326601 28.79696508 211.07804208 28.7982797 C195.36513129 28.80968898 179.6523138 28.79656674 163.93941831 28.77507824 C150.45655025 28.75721025 136.97381996 28.7603082 123.4909544 28.77875328 C107.83615981 28.8001596 92.18144706 28.80858681 76.52663988 28.79630423 C74.85724288 28.79503002 73.18784586 28.79377254 71.51844883 28.79253197 C70.69706318 28.79191487 69.87567753 28.79129776 69.02940141 28.79066196 C63.24077396 28.78720809 57.4521984 28.79303826 51.66357899 28.80245018 C44.60848134 28.81366905 37.5535617 28.81063271 30.49848444 28.7893272 C26.89870807 28.77881464 23.29922848 28.77469812 19.69945431 28.78792381 C15.79771965 28.80204207 11.89647097 28.78518429 7.99475384 28.76520348 C6.28683142 28.77858781 6.28683142 28.77858781 4.54440552 28.79224253 C-1.64389174 28.7305851 -5.27521104 28.35952671 -10.00636005 24.25726891 C-10.61479755 23.82156578 -11.22323505 23.38586266 -11.85011005 22.93695641 C-14.76139394 18.70772643 -13.62593624 12.11156306 -13.00636005 7.25726891 C-10.69386005 4.00726891 -10.69386005 4.00726891 -8.00636005 2.25726891 C-4.72966686 0.07280678 -3.79599317 0.00593652 0 0 Z " fill="#83D5C4" transform="translate(96.00636005401611,80.74273109436035)"/>
<path d="M0 0 C1.26081742 -0.00573832 1.26081742 -0.00573832 2.54710591 -0.01159257 C5.36212561 -0.0219069 8.17694075 -0.01793338 10.99197388 -0.01396179 C13.01088652 -0.01830915 15.02979752 -0.02349238 17.04870605 -0.02944946 C22.53219474 -0.04284861 28.01561455 -0.04341707 33.49911642 -0.04088616 C38.07668778 -0.039817 42.65424518 -0.04469845 47.23181355 -0.04949158 C58.0314349 -0.06059009 68.83102146 -0.06102234 79.63064575 -0.05497742 C90.7715743 -0.04893733 101.91237657 -0.0612488 113.05328357 -0.08254749 C122.61860328 -0.10016161 132.18388278 -0.10616511 141.74921811 -0.10290974 C147.46205714 -0.10109634 153.17480611 -0.10373882 158.88763046 -0.11762428 C164.26058376 -0.13019474 169.63334018 -0.12826582 175.00629044 -0.11521339 C176.97712521 -0.11284631 178.9479738 -0.115587 180.91879272 -0.12383652 C183.61161762 -0.13429454 186.30378082 -0.12621086 188.99658203 -0.11352539 C189.77431689 -0.12089968 190.55205175 -0.12827396 191.35335433 -0.13587171 C196.49071871 -0.08504669 200.05731366 0.86470377 204.62527466 3.26069641 C208.11682963 6.84177844 208.93432331 9.83593233 209.18777466 14.69819641 C209.01487418 19.39852789 208.01319732 22.25557181 205.10964966 25.92085266 C200.94521516 29.67980274 196.67140428 29.54703012 191.28814697 29.52139282 C190.43958378 29.52521837 189.59102058 29.52904392 188.71674335 29.53298539 C185.8686455 29.54331777 183.02074916 29.53932277 180.17263794 29.53535461 C178.13254611 29.53970098 176.09245592 29.54488387 174.05236816 29.55084229 C168.50690613 29.56425224 162.96151217 29.56480869 157.41603708 29.56227899 C152.78871513 29.56121054 148.16140701 29.56608945 143.53408802 29.57088441 C132.61802124 29.58198669 121.70198888 29.58241306 110.78591919 29.57637024 C99.520592 29.57032999 88.25538969 29.58264116 76.99008381 29.60394031 C67.32204075 29.62154815 57.65403747 29.62755892 47.98597896 29.62430257 C42.21000009 29.62248813 36.43411028 29.62514187 30.6581459 29.63901711 C25.2261138 29.65157734 19.79427652 29.64966836 14.36224747 29.63660622 C12.36841771 29.63423689 10.37457432 29.63698784 8.38076019 29.64522934 C5.65906972 29.65566836 2.93803636 29.64761896 0.21636963 29.63491821 C-0.57274209 29.6422925 -1.36185381 29.64966678 -2.174878 29.65726453 C-8.27509916 29.59737357 -12.34061162 28.24726824 -16.71456909 23.97554016 C-19.71655182 19.06641546 -19.18382025 13.81276146 -18.37472534 8.26069641 C-16.8093883 4.7964259 -14.61167047 2.90908588 -11.22236443 1.13245869 C-7.46852831 -0.01672231 -3.88677042 -0.01877964 0 0 Z " fill="#4DAE98" transform="translate(101.37472534179688,164.7393035888672)"/>
<path d="M0 0 C13.29133268 -0.06957629 26.58262188 -0.12285018 39.87409973 -0.15543652 C46.0461776 -0.17107801 52.21813067 -0.19228889 58.39013672 -0.22631836 C64.34884871 -0.25896543 70.30744081 -0.27686443 76.26623535 -0.28463173 C78.53716926 -0.2901656 80.80809676 -0.30097188 83.07897949 -0.31719017 C86.26503571 -0.33903513 89.45059943 -0.34196392 92.63671875 -0.34057617 C93.57108261 -0.351362 94.50544647 -0.36214783 95.46812439 -0.3732605 C101.32562682 -0.34573682 105.675173 0.4980871 111 3 C114.7891366 7.177766 116.26973992 11.4217785 116 17 C114.43102116 22.22992948 112.53499619 24.97666921 108 28 C104.67716805 29.66141597 100.95406727 29.17468601 97.29931641 29.19287109 C96.39836746 29.20104858 95.49741852 29.20922607 94.56916809 29.21765137 C91.57997305 29.24251753 88.59082547 29.25902293 85.6015625 29.2734375 C84.58236095 29.27876118 83.56315941 29.28408485 82.51307297 29.28956985 C77.1203766 29.31630448 71.72770343 29.33567994 66.33496094 29.35009766 C60.75703133 29.36676245 55.17969062 29.41155483 49.60198402 29.4624691 C45.31950172 29.49607318 41.0371605 29.50766749 36.75455856 29.51332474 C34.69799667 29.52005425 32.64144461 29.53532014 30.58501053 29.55921555 C27.70933801 29.59072845 24.8352715 29.59092499 21.95947266 29.58349609 C20.68132942 29.6081041 20.68132942 29.6081041 19.37736511 29.63320923 C13.59121098 29.57190429 13.59121098 29.57190429 10.5123291 26.59356689 C9.22229628 24.38122673 7.98406748 22.23092212 6.9296875 19.8984375 C6.42115234 18.79242188 6.42115234 18.79242188 5.90234375 17.6640625 C5.56332031 16.90867187 5.22429687 16.15328125 4.875 15.375 C4.18704999 13.86099849 3.49702453 12.34793791 2.8046875 10.8359375 C2.50546387 10.17126465 2.20624023 9.5065918 1.89794922 8.82177734 C0.92209626 6.74265021 0.92209626 6.74265021 -1 4 C-0.625 1.8125 -0.625 1.8125 0 0 Z " fill="#3BA07C" transform="translate(283,250)"/>
<path d="M0 0 C1.50845993 -0.00065712 1.50845993 -0.00065712 3.0473938 -0.00132751 C6.35349304 0.00075349 9.65907782 0.02405249 12.96508789 0.04760742 C15.26436588 0.05320581 17.56364745 0.05747476 19.8629303 0.06047058 C25.9013159 0.07190015 31.93948347 0.10135131 37.9777832 0.13458252 C44.14474539 0.16532399 50.31174296 0.17898464 56.47875977 0.1940918 C68.56935011 0.22622263 80.65977896 0.27739632 92.75024414 0.34057617 C93.87855623 3.73431652 93.80729946 4.21260715 92.23852539 7.73120117 C91.52522513 9.02432934 90.79930731 10.3105557 90.06274414 11.59057617 C89.31583999 12.93257337 88.56973851 14.27501764 87.82446289 15.61791992 C87.46400879 16.25971191 87.10355469 16.90150391 86.73217773 17.56274414 C85.53803074 19.72479745 84.44512172 21.9272389 83.37524414 24.15307617 C81.75024414 27.34057617 81.75024414 27.34057617 79.75024414 29.34057617 C76.85990249 29.54462179 74.06498798 29.62372654 71.1730957 29.61523438 C70.28511292 29.62034531 69.39713013 29.62545624 68.48223877 29.63072205 C65.53504771 29.64466644 62.58808935 29.64365711 59.64086914 29.64135742 C57.59543775 29.64524278 55.55000717 29.64957711 53.50457764 29.65434265 C49.21046336 29.66181608 44.91643126 29.66150626 40.62231445 29.65625 C35.12319155 29.65046551 29.62440656 29.6673563 24.12533951 29.69059467 C19.89766476 29.70534151 15.6700711 29.70620221 11.44237518 29.70308495 C9.41541629 29.70359806 7.38845284 29.708834 5.36151886 29.71889687 C2.52244804 29.73125695 -0.31596865 29.72447113 -3.1550293 29.71289062 C-3.9905835 29.72053436 -4.8261377 29.7281781 -5.68701172 29.73605347 C-11.7254799 29.68171365 -15.68944819 28.25973835 -20.58959961 24.58666992 C-24.00474723 19.96617608 -22.9857442 13.78947228 -22.24975586 8.34057617 C-17.12306809 0.41751326 -8.60356059 -0.0989345 0 0 Z " fill="#348686" transform="translate(105.249755859375,249.659423828125)"/>
<path d="M0 0 C3.07598615 1.53799308 3.65059766 4.05961468 5.125 7.125 C7.06209742 11.14109909 9.02894376 15.10968376 11.23828125 18.984375 C11.6048584 19.63519043 11.97143555 20.28600586 12.34912109 20.95654297 C13.05615575 22.20281446 13.77590595 23.44198785 14.51025391 24.67236328 C17.17281452 29.41855232 17.49791301 32.70552497 17 38 C14.55350391 41.48440353 12.96874009 42.74671108 8.84765625 43.82421875 C4.0051571 44.04544968 0.87775572 42.78039867 -3.5 40.875 C-5.09773549 40.2157784 -6.69671619 39.55956737 -8.296875 38.90625 C-9.08900391 38.58011719 -9.88113281 38.25398438 -10.69726562 37.91796875 C-15.05715852 36.17992833 -19.51670847 34.77120235 -23.984375 33.3359375 C-27.76679427 32.10559666 -31.5071038 30.75846017 -35.25097656 29.41650391 C-36.22540207 29.06783012 -36.22540207 29.06783012 -37.21951294 28.71211243 C-38.81315068 28.14180509 -40.40659476 27.57095662 -42 27 C-42.00364563 27.81352936 -42.00729126 28.62705872 -42.01104736 29.46524048 C-42.04897043 37.14546537 -42.10587146 44.82520748 -42.18390274 52.50512123 C-42.22335197 56.45313769 -42.25555271 60.40093197 -42.27099609 64.34912109 C-42.28617993 68.16194987 -42.32065493 71.97416775 -42.36830902 75.78672409 C-42.38310524 77.23865819 -42.39104001 78.69067951 -42.39188385 80.14268875 C-42.39426082 82.18253362 -42.42139312 84.22070005 -42.45410156 86.26025391 C-42.46742523 87.99899277 -42.46742523 87.99899277 -42.48101807 89.77285767 C-43.11211785 93.69717311 -44.5683935 95.89318064 -47 99 C-51.68358066 102.33757865 -57.86854382 101.40927784 -63.375 101.4375 C-65.06109375 101.48680664 -65.06109375 101.48680664 -66.78125 101.53710938 C-76.03451021 101.5972665 -76.03451021 101.5972665 -79.7265625 98.66015625 C-84.19247156 93.43458225 -83.349133 87.2606933 -83.5625 80.6875 C-83.6049585 79.43686768 -83.64741699 78.18623535 -83.69116211 76.89770508 C-84.2230077 59.93782719 -84.08891195 42.96576816 -84 26 C-84.93066284 26.37137085 -84.93066284 26.37137085 -85.88012695 26.75024414 C-88.68716519 27.86407313 -91.49965691 28.9634178 -94.3125 30.0625 C-95.77719727 30.64741211 -95.77719727 30.64741211 -97.27148438 31.24414062 C-98.20927734 31.60830078 -99.14707031 31.97246094 -100.11328125 32.34765625 C-101.40939331 32.85824585 -101.40939331 32.85824585 -102.73168945 33.37915039 C-105 34 -105 34 -108 33 C-106.42798828 32.41992188 -106.42798828 32.41992188 -104.82421875 31.828125 C-103.44506482 31.30273303 -102.06617202 30.77665524 -100.6875 30.25 C-99.99720703 29.99734375 -99.30691406 29.7446875 -98.59570312 29.484375 C-94.56044745 27.9248559 -92.35669076 26.61307225 -90 23 C-87.4375 22.8125 -87.4375 22.8125 -85 23 C-84.34 22.67 -83.68 22.34 -83 22 C-81.52050781 22.99609375 -81.52050781 22.99609375 -80 25 C-79.72602973 27.76522318 -79.6271494 30.30016506 -79.671875 33.0625 C-79.67374817 33.85019775 -79.67562134 34.63789551 -79.67755127 35.44946289 C-79.68426967 37.11381263 -79.69818007 38.77814663 -79.71875 40.44238281 C-79.7498825 42.99038365 -79.75971962 45.53776537 -79.765625 48.0859375 C-79.77479631 49.70313254 -79.78517249 51.32032129 -79.796875 52.9375 C-79.80324982 54.08134155 -79.80324982 54.08134155 -79.80975342 55.24829102 C-79.85263227 58.42078649 -79.98967743 60.9690323 -81 64 C-80.67 64.99 -80.34 65.98 -80 67 C-80.26547314 68.92468027 -80.53140201 70.84930004 -80.80078125 72.7734375 C-81.48663048 80.43881121 -79.30918283 88.48808688 -78 96 C-71.85667041 98.23238884 -66.53199703 98.06720759 -60.0625 97.625 C-59.09248047 97.56828125 -58.12246094 97.5115625 -57.12304688 97.453125 C-54.74783646 97.31271847 -52.37385876 97.16142622 -50 97 C-47.70257404 92.74795771 -46.75268548 90.00073386 -46.96484375 85.12109375 C-47.00120284 82.92742882 -46.75518565 80.91889092 -46.4375 78.75 C-46.01808876 75.34271066 -46.10805106 72.31223667 -46.5 68.90625 C-47.28924722 60.18249972 -46.8577498 51.48973068 -46.5625 42.75 C-46.5091434 41.02215452 -46.45640454 39.29428985 -46.40429688 37.56640625 C-46.27664303 33.37734915 -46.14066327 29.18863961 -46 25 C-43.58303128 24.94588876 -41.16728213 24.90627722 -38.75 24.875 C-38.06808594 24.85824219 -37.38617188 24.84148437 -36.68359375 24.82421875 C-32.9391765 24.78786518 -30.17647273 24.92055651 -27 27 C-27 27.66 -27 28.32 -27 29 C-26.34 29 -25.68 29 -25 29 C-24.59652344 29.47308594 -24.19304687 29.94617188 -23.77734375 30.43359375 C-21.21641877 32.69058477 -18.91620586 32.67040953 -15.5625 33.0625 C-11.54097966 33.54288639 -8.55809323 34.09878709 -5 36 C-3.783125 36.165 -2.56625 36.33 -1.3125 36.5 C-0.219375 36.665 0.87375 36.83 2 37 C2.33 37.66 2.66 38.32 3 39 C6.24733335 40.2757381 8.67032582 39.83241855 12 39 C13.29745634 34.58864846 12.50317974 32.27219505 11 28 C10.24832576 24.34756946 9.61512592 20.67766772 9 17 C8.34 17 7.68 17 7 17 C7 16.34 7 15.68 7 15 C6.34 15 5.68 15 5 15 C4.15415002 13.44424022 3.32381601 11.8800388 2.5 10.3125 C1.80390625 9.00732422 1.80390625 9.00732422 1.09375 7.67578125 C-0.04818792 4.88211171 -0.21504208 2.98370887 0 0 Z " fill="#2B594B" transform="translate(304,338)"/>
<path d="M0 0 C13.29133268 -0.06957629 26.58262188 -0.12285018 39.87409973 -0.15543652 C46.0461776 -0.17107801 52.21813067 -0.19228889 58.39013672 -0.22631836 C64.34884871 -0.25896543 70.30744081 -0.27686443 76.26623535 -0.28463173 C78.53716926 -0.2901656 80.80809676 -0.30097188 83.07897949 -0.31719017 C86.26503571 -0.33903513 89.45059943 -0.34196392 92.63671875 -0.34057617 C93.57108261 -0.351362 94.50544647 -0.36214783 95.46812439 -0.3732605 C101.32562682 -0.34573682 105.675173 0.4980871 111 3 C114.7891366 7.177766 116.26973992 11.4217785 116 17 C114.43102116 22.22992948 112.53499619 24.97666921 108 28 C104.67716805 29.66141597 100.95406727 29.17468601 97.29931641 29.19287109 C96.39836746 29.20104858 95.49741852 29.20922607 94.56916809 29.21765137 C91.57997305 29.24251753 88.59082547 29.25902293 85.6015625 29.2734375 C84.58236095 29.27876118 83.56315941 29.28408485 82.51307297 29.28956985 C77.1203766 29.31630448 71.72770343 29.33567994 66.33496094 29.35009766 C60.75703133 29.36676245 55.17969062 29.41155483 49.60198402 29.4624691 C45.31950172 29.49607318 41.0371605 29.50766749 36.75455856 29.51332474 C34.69799667 29.52005425 32.64144461 29.53532014 30.58501053 29.55921555 C27.70933801 29.59072845 24.8352715 29.59092499 21.95947266 29.58349609 C20.68132942 29.6081041 20.68132942 29.6081041 19.37736511 29.63320923 C13.59121098 29.57190429 13.59121098 29.57190429 10.5123291 26.59356689 C9.22229628 24.38122673 7.98406748 22.23092212 6.9296875 19.8984375 C6.42115234 18.79242188 6.42115234 18.79242188 5.90234375 17.6640625 C5.56332031 16.90867187 5.22429687 16.15328125 4.875 15.375 C4.18704999 13.86099849 3.49702453 12.34793791 2.8046875 10.8359375 C2.50546387 10.17126465 2.20624023 9.5065918 1.89794922 8.82177734 C0.92209626 6.74265021 0.92209626 6.74265021 -1 4 C-0.625 1.8125 -0.625 1.8125 0 0 Z M20.25 3.375 C19.55737061 3.39642059 18.86474121 3.41784119 18.15112305 3.43991089 C11.63655219 3.02291938 11.63655219 3.02291938 6 5 C5.92820036 6.51928038 5.91607993 8.04167482 5.9375 9.5625 C5.94652344 10.38878906 5.95554687 11.21507812 5.96484375 12.06640625 C5.97644531 12.70449219 5.98804688 13.34257812 6 14 C6.99 14 7.98 14 9 14 C9.18175781 14.60328125 9.36351562 15.2065625 9.55078125 15.828125 C9.80214844 16.62734375 10.05351562 17.4265625 10.3125 18.25 C10.55613281 19.03890625 10.79976563 19.8278125 11.05078125 20.640625 C12.09597046 23.23854386 13.08820737 24.94790947 15 27 C17.31110511 27.53362563 17.31110511 27.53362563 19.89453125 27.35546875 C20.85037109 27.33806641 21.80621094 27.32066406 22.79101562 27.30273438 C24.28665039 27.24569336 24.28665039 27.24569336 25.8125 27.1875 C27.77722807 27.13481599 29.74207946 27.08651704 31.70703125 27.04296875 C32.5781958 27.01227295 33.44936035 26.98157715 34.34692383 26.94995117 C37 27 37 27 39.77326965 27.49603271 C43.00462047 28.00072165 46.01264192 28.12030572 49.28076172 28.11352539 C50.5015744 28.11344986 51.72238708 28.11337433 52.98019409 28.11329651 C54.28352692 28.10813522 55.58685974 28.10297394 56.9296875 28.09765625 C58.28874662 28.09578901 59.64780642 28.09436655 61.00686646 28.09336853 C64.56768686 28.08956748 68.12846587 28.07975802 71.68927002 28.06866455 C75.32929932 28.05839835 78.96933537 28.05385979 82.609375 28.04882812 C89.73960017 28.03813339 96.86979737 28.02108622 104 28 C104 27.34 104 26.68 104 26 C104.7425 25.79375 105.485 25.5875 106.25 25.375 C109.96464284 23.51767858 111.14884184 21.70231632 113 18 C113.31325634 15.23538851 113.19287615 12.79670414 113 10 C112.01 9.505 112.01 9.505 111 9 C110.375 6.4375 110.375 6.4375 110 4 C108.60297852 4.00978882 108.60297852 4.00978882 107.17773438 4.01977539 C98.41647565 4.06030073 89.66516347 3.95231665 80.90625 3.74609375 C50.57869858 2.99561274 50.57869858 2.99561274 20.25 3.375 Z " fill="#51977D" transform="translate(283,250)"/>
<path d="M0 0 C0.84165836 -0.00241442 1.68331673 -0.00482883 2.55047989 -0.00731641 C5.38106204 -0.01296862 8.21142004 -0.0042788 11.04199219 0.00431824 C13.06709861 0.00324573 15.09220472 0.00130752 17.11730957 -0.00143433 C22.62545233 -0.00629086 28.13351435 0.00138313 33.64164734 0.01151872 C39.39781608 0.02028632 45.15398219 0.01854202 50.91015625 0.01815796 C60.57781327 0.0190952 70.24543894 0.02778725 79.91308594 0.04142761 C91.10059015 0.05715376 102.28806002 0.06242575 113.47557449 0.06169206 C124.2242404 0.06108228 134.97289508 0.06618319 145.72155762 0.07448387 C150.30204353 0.07802022 154.88252548 0.07984762 159.4630127 0.08037758 C164.85393028 0.08138014 170.2448189 0.08746968 175.63572693 0.09754372 C177.61791303 0.10047124 179.60010247 0.10169358 181.58229065 0.10111618 C184.28080297 0.10062747 186.97923343 0.10626163 189.67773438 0.11352539 C190.86386007 0.11120249 190.86386007 0.11120249 192.07394791 0.10883266 C195.26261752 0.1230791 197.79097673 0.23127467 200.83886719 1.24723816 C200.83886719 2.23723816 200.83886719 3.22723816 200.83886719 4.24723816 C200.19643066 4.08497742 199.55399414 3.92271667 198.89208984 3.75553894 C194.90187536 3.09124768 191.02526843 3.10439202 186.98730469 3.11442566 C186.13262604 3.11346893 185.27794739 3.11251221 184.39736938 3.11152649 C182.59027025 3.11084732 180.78316864 3.11268323 178.97607422 3.11686707 C176.24408304 3.1221794 173.51225926 3.11693368 170.78027344 3.11051941 C169.01595016 3.11118101 167.25162699 3.11246386 165.48730469 3.11442566 C164.68481293 3.11240143 163.88232117 3.1103772 163.05551147 3.10829163 C158.92614805 3.12489715 154.88653286 3.31546084 150.77905273 3.74723816 C143.24638279 4.48227499 135.70717439 4.39142527 128.14746094 4.38005066 C126.55046067 4.38072609 124.9534605 4.3816981 123.35646057 4.38294983 C120.02742524 4.38441513 116.69841693 4.38230979 113.36938477 4.37760925 C109.12766847 4.37190802 104.88601541 4.37520093 100.64430141 4.38118172 C97.35239699 4.38481503 94.06050727 4.38363615 90.76860237 4.38105392 C89.20548558 4.38039255 87.64236741 4.38118509 86.07925224 4.38353348 C78.61309952 4.39229373 71.24122878 4.32881962 63.81404114 3.45619202 C61.34771548 3.19527917 58.97550214 3.23788516 56.50292969 3.40348816 C55.54169189 3.45706482 54.5804541 3.51064148 53.59008789 3.56584167 C52.55843506 3.62570251 51.52678223 3.68556335 50.46386719 3.74723816 C30.59832119 4.71505791 10.7060833 3.83966782 -9.16113281 3.24723816 C-9.46019531 3.86083191 -9.75925781 4.47442566 -10.06738281 5.10661316 C-11.23383254 7.38952191 -12.49267897 9.30070867 -14.16113281 11.24723816 C-14.82113281 11.24723816 -15.48113281 11.24723816 -16.16113281 11.24723816 C-15.83113281 11.90723816 -15.50113281 12.56723816 -15.16113281 13.24723816 C-15.12090891 15.58022476 -15.11793034 17.91430481 -15.16113281 20.24723816 C-17.15939242 17.24984875 -17.43663679 16.61376308 -17.41113281 13.24723816 C-17.41628906 12.56661316 -17.42144531 11.88598816 -17.42675781 11.18473816 C-17.16113281 9.24723816 -17.16113281 9.24723816 -15.16113281 6.24723816 C-14.50113281 6.24723816 -13.84113281 6.24723816 -13.16113281 6.24723816 C-12.89300781 5.62848816 -12.62488281 5.00973816 -12.34863281 4.37223816 C-9.51516557 -0.6981769 -5.11491209 -0.03327077 0 0 Z " fill="#4C8B7E" transform="translate(101.1611328125,164.7527618408203)"/>
<path d="M0 0 C37.89533834 -0.06862662 75.79066735 -0.12150868 113.68605523 -0.15319599 C118.15724005 -0.15694823 122.62842474 -0.16083118 127.09960938 -0.16479492 C127.98976334 -0.16558185 128.8799173 -0.16636878 129.79704562 -0.16717956 C144.22118288 -0.18024299 158.64528438 -0.20390197 173.0694004 -0.23145839 C187.86353983 -0.25948655 202.65766049 -0.27617077 217.45182538 -0.28226548 C226.58485283 -0.28638731 235.71777917 -0.29941818 244.85077551 -0.3237494 C251.10872573 -0.33957465 257.36662348 -0.34440767 263.62459227 -0.34050413 C267.23823271 -0.33857756 270.85169615 -0.34158602 274.46530533 -0.35761642 C278.37885294 -0.37485108 282.29216799 -0.36898403 286.20574951 -0.36076355 C287.35360074 -0.36950207 288.50145196 -0.3782406 289.68408656 -0.38724393 C290.73010264 -0.38127078 291.77611871 -0.37529764 292.85383224 -0.36914349 C293.75756663 -0.37028265 294.66130102 -0.37142181 295.59242129 -0.37259549 C298.45602613 0.07057434 299.84875426 1.10694507 302 3 C300.515 3.495 300.515 3.495 299 4 C299 3.34 299 2.68 299 2 C298.27990393 2.16257736 297.55980786 2.32515473 296.8178907 2.49265867 C294.10550716 2.98100418 291.66509812 3.12210253 288.91374874 3.1174612 C287.90652576 3.11821886 286.89930279 3.11897651 285.8615579 3.11975712 C284.76214843 3.11548003 283.66273895 3.11120295 282.53001404 3.10679626 C281.35658465 3.10623956 280.18315526 3.10568285 278.97416741 3.10510927 C275.72091589 3.1025985 272.46770934 3.09559939 269.21447003 3.08674753 C265.7045687 3.07831349 262.19466271 3.07571789 258.68475342 3.07249451 C252.60395529 3.06619759 246.5231706 3.05645825 240.44238091 3.04459953 C231.64622907 3.02762535 222.85008058 3.01807078 214.05391598 3.0107208 C199.77690681 2.9987755 185.49990289 2.98382583 171.22290039 2.96557617 C170.3684707 2.96448605 169.51404101 2.96339593 168.63371951 2.96227277 C156.50141822 2.94665399 144.36912328 2.92805864 132.23682816 2.9082749 C130.95472883 2.90618493 130.95472883 2.90618493 129.64672852 2.90405273 C128.36618976 2.90196244 128.36618976 2.90196244 127.05978154 2.89982992 C112.83501171 2.87681028 98.61024601 2.86148531 84.38546044 2.85249335 C75.60911631 2.8466348 66.83282872 2.83424612 58.05650688 2.81352056 C52.04623961 2.79983137 46.03599216 2.7933206 40.02570944 2.79251044 C36.55586227 2.79180519 33.08609952 2.78778002 29.61627388 2.7750473 C25.85845615 2.76292279 22.10083353 2.76300286 18.34300232 2.76622009 C17.24136212 2.75971229 16.13972193 2.75320449 15.00469869 2.74649948 C13.49777585 2.75154758 13.49777585 2.75154758 11.96041012 2.75669765 C11.09280148 2.75539614 10.22519285 2.75409463 9.33129305 2.75275367 C6.77564471 3.0237941 5.23708815 3.77342161 3 5 C0.6756398 5.69730806 -1.65673706 6.36912152 -4 7 C-2.68 4.69 -1.36 2.38 0 0 Z " fill="#84BCB0" transform="translate(91,81)"/>
<path d="M0 0 C1.50845993 -0.00065712 1.50845993 -0.00065712 3.0473938 -0.00132751 C6.35349304 0.00075349 9.65907782 0.02405249 12.96508789 0.04760742 C15.26436588 0.05320581 17.56364745 0.05747476 19.8629303 0.06047058 C25.9013159 0.07190015 31.93948347 0.10135131 37.9777832 0.13458252 C44.14474539 0.16532399 50.31174296 0.17898464 56.47875977 0.1940918 C68.56935011 0.22622263 80.65977896 0.27739632 92.75024414 0.34057617 C93.82785034 4.11169434 93.82785034 4.11169434 93.12939453 6.17163086 C92.78900146 6.77910156 92.4486084 7.38657227 92.09790039 8.01245117 C91.73374023 8.67631836 91.36958008 9.34018555 90.99438477 10.02416992 C90.40947266 11.04704102 90.40947266 11.04704102 89.81274414 12.09057617 C89.42666992 12.78795898 89.0405957 13.4853418 88.64282227 14.20385742 C87.68950777 15.92217737 86.72129068 17.63221421 85.75024414 19.34057617 C84.54804211 15.80963315 84.95492065 13.21158635 85.68774414 9.59057617 C85.88239258 8.60573242 86.07704102 7.62088867 86.27758789 6.60620117 C86.51155273 5.4847168 86.51155273 5.4847168 86.75024414 4.34057617 C75.10984122 4.31731383 63.46944392 4.29959068 51.82902241 4.288764 C46.42279039 4.2835654 41.01657437 4.27652321 35.61035156 4.26513672 C30.3843031 4.25419972 25.15826995 4.24827661 19.93221092 4.24569893 C17.94732612 4.24386404 15.96244207 4.24028133 13.97756386 4.23484612 C3.51570595 4.20736102 -6.8313469 4.27199616 -17.24975586 5.34057617 C-17.24975586 6.00057617 -17.24975586 6.66057617 -17.24975586 7.34057617 C-17.90975586 7.34057617 -18.56975586 7.34057617 -19.24975586 7.34057617 C-19.22655273 8.16041992 -19.20334961 8.98026367 -19.17944336 9.82495117 C-19.16139648 10.90260742 -19.14334961 11.98026367 -19.12475586 13.09057617 C-19.10155273 14.15791992 -19.07834961 15.22526367 -19.05444336 16.32495117 C-19.24487899 19.26527723 -19.72305482 20.86419495 -21.24975586 23.34057617 C-23.1774646 21.41286743 -22.55553531 18.15706131 -22.62475586 15.59057617 C-22.56293457 8.82457964 -22.56293457 8.82457964 -20.18725586 5.15307617 C-13.19655759 0.8396666 -8.10712468 -0.09322586 0 0 Z " fill="#33746B" transform="translate(105.249755859375,249.659423828125)"/>
<path d="M0 0 C2 1.3125 2 1.3125 4 4 C4.97098113 9.43062012 4.91044629 14.40500021 1.75 19.0625 C-0.23516951 21.56847015 -2.01196804 22.85379998 -5 24 C-7.82151566 24.1901264 -10.54311644 24.26977211 -13.36404419 24.25396729 C-14.21542965 24.25708727 -15.06681511 24.26020725 -15.94400012 24.26342177 C-18.80144126 24.27140942 -21.6586705 24.26507517 -24.51611328 24.25878906 C-26.56269455 24.26149854 -28.60927484 24.26505923 -30.65585327 24.26940918 C-36.21758104 24.27853941 -41.77923475 24.2749866 -47.34096384 24.26865101 C-53.15365203 24.26359568 -58.96633378 24.26828103 -64.77902222 24.27142334 C-74.53905377 24.27506377 -84.29905507 24.27026126 -94.05908203 24.26074219 C-105.3562748 24.24985141 -116.65339541 24.25338745 -127.95058644 24.264395 C-137.63894715 24.27345843 -147.3272861 24.27475797 -157.01564968 24.26951766 C-162.80712815 24.26639354 -168.59857266 24.26600084 -174.39004898 24.27259064 C-179.83188649 24.27834997 -185.27363055 24.27439322 -190.71545792 24.26280212 C-192.71741582 24.26014821 -194.71938153 24.26093301 -196.72133636 24.26532745 C-199.44430632 24.27075545 -202.16697273 24.26398249 -204.8899231 24.25396729 C-205.69068618 24.25842873 -206.49144926 24.26289017 -207.31647789 24.26748681 C-212.77169951 24.22830049 -212.77169951 24.22830049 -215 22 C-144.71 21.67 -74.42 21.34 -2 21 C-2.33 20.01 -2.66 19.02 -3 18 C-2.34 18 -1.68 18 -1 18 C-0.34 16.68 0.32 15.36 1 14 C1.33 14 1.66 14 2 14 C2 11.03 2 8.06 2 5 C1.34 5 0.68 5 0 5 C0 3.35 0 1.7 0 0 Z " fill="#386B5C" transform="translate(306,170)"/>
<path d="M0 0 C3.96076648 0.80831969 6.3313116 2.76423468 9.0625 5.625 C10.46998439 7.99713301 11.63131655 10.19293579 12.75 12.6875 C13.42700688 14.11777738 14.10820937 15.54607421 14.79296875 16.97265625 C15.15438965 17.72691895 15.51581055 18.48118164 15.88818359 19.25830078 C17.97181866 23.45762683 20.27702392 27.53315281 22.5625 31.625 C24.40284968 34.95450222 26.23557222 38.28811507 28.0625 41.625 C28.48724609 42.40069336 28.91199219 43.17638672 29.34960938 43.97558594 C30.52318071 46.14081573 31.67182313 48.3172994 32.8125 50.5 C33.15990234 51.13550781 33.50730469 51.77101563 33.86523438 52.42578125 C35.98412361 56.55694895 36.29390765 59.15088554 35.0625 63.625 C33.0625 62.625 33.0625 62.625 32.24609375 60.59375 C31.99988281 59.7790625 31.75367188 58.964375 31.5 58.125 C30.73701663 55.11168507 30.73701663 55.11168507 29.0625 52.625 C28.0725 53.12 28.0725 53.12 27.0625 53.625 C25.0625 47.625 23.0625 41.625 21.0625 35.625 C20.4025 35.625 19.7425 35.625 19.0625 35.625 C18.38895501 34.19070999 17.72390299 32.75242943 17.0625 31.3125 C16.69125 30.51199219 16.32 29.71148437 15.9375 28.88671875 C15.0625 26.625 15.0625 26.625 15.0625 23.625 C14.4025 23.625 13.7425 23.625 13.0625 23.625 C11.80585022 20.71899739 11.0625 18.82895416 11.0625 15.625 C10.4025 15.625 9.7425 15.625 9.0625 15.625 C7.5775 11.17 7.5775 11.17 6.0625 6.625 C-0.8358319 7.51777192 -0.8358319 7.51777192 -6 11.75 C-6.9590625 13.173125 -6.9590625 13.173125 -7.9375 14.625 C-9.54995225 11.40009551 -8.75323082 9.06272273 -7.9375 5.625 C-5.47546371 2.31883698 -4.05589195 0.86295573 0 0 Z " fill="#438869" transform="translate(239.9375,224.375)"/>
<path d="M0 0 C0.99 0.33 1.98 0.66 3 1 C4.16464786 7.03499345 4.18891537 10.47254669 1 16 C-4.21786866 20.83607339 -7.79407018 21.15850559 -14.70068359 21.19287109 C-15.60163254 21.20104858 -16.50258148 21.20922607 -17.43083191 21.21765137 C-20.42002695 21.24251753 -23.40917453 21.25902293 -26.3984375 21.2734375 C-27.41763905 21.27876118 -28.43684059 21.28408485 -29.48692703 21.28956985 C-34.8796234 21.31630448 -40.27229657 21.33567994 -45.66503906 21.35009766 C-51.24296867 21.36676245 -56.82030938 21.41155483 -62.39801598 21.4624691 C-66.68049828 21.49607318 -70.9628395 21.50766749 -75.24544144 21.51332474 C-77.30200333 21.52005425 -79.35855539 21.53532014 -81.41498947 21.55921555 C-84.29066199 21.59072845 -87.1647285 21.59092499 -90.04052734 21.58349609 C-91.31867058 21.6081041 -91.31867058 21.6081041 -92.62263489 21.63320923 C-98.40607146 21.57193309 -98.40607146 21.57193309 -101.4671936 18.62417603 C-102.96338708 16.06268158 -104.43288221 13.53362665 -105.75 10.875 C-106.17796875 10.02679688 -106.6059375 9.17859375 -107.046875 8.3046875 C-108 6 -108 6 -108 3 C-107.34 3 -106.68 3 -106 3 C-106 3.99 -106 4.98 -106 6 C-105.01 6 -104.02 6 -103 6 C-101 10 -99 14 -97 18 C-96.36497559 17.99476318 -95.72995117 17.98952637 -95.07568359 17.98413086 C-92.17546595 17.96323744 -89.2752642 17.95030066 -86.375 17.9375 C-85.37597656 17.92912109 -84.37695312 17.92074219 -83.34765625 17.91210938 C-82.37441406 17.90888672 -81.40117187 17.90566406 -80.3984375 17.90234375 C-79.50817871 17.89710693 -78.61791992 17.89187012 -77.70068359 17.88647461 C-75 18 -75 18 -72.22375488 18.4942627 C-69.00905022 18.99858022 -65.97100163 19.15809749 -62.71923828 19.20532227 C-60.88801926 19.2352401 -60.88801926 19.2352401 -59.01980591 19.26576233 C-57.06480667 19.29083107 -57.06480667 19.29083107 -55.0703125 19.31640625 C-53.71124681 19.33700243 -52.35218714 19.35799955 -50.99313354 19.37937927 C-47.43238226 19.43432513 -43.87157583 19.48385447 -40.31072998 19.53222656 C-36.67064562 19.58264353 -33.03064041 19.63822371 -29.390625 19.69335938 C-22.26048546 19.80060423 -15.13027478 19.90212261 -8 20 C-8 19.34 -8 18.68 -8 18 C-7.05125 17.38125 -6.1025 16.7625 -5.125 16.125 C-1.99805957 13.99868051 -1.25156129 13.38162233 0 10 C0.24029959 7.40845081 0.24029959 7.40845081 0.125 4.75 C0.10695313 3.85796875 0.08890625 2.9659375 0.0703125 2.046875 C0.04710937 1.37140625 0.02390625 0.6959375 0 0 Z " fill="#457362" transform="translate(395,258)"/>
<path d="M0 0 C13.36043454 -0.04630217 26.72085004 -0.08185846 40.08134842 -0.10362434 C46.28489258 -0.11406987 52.48838192 -0.12824319 58.69189453 -0.15087891 C64.67651662 -0.17257973 70.66108593 -0.18456283 76.64574432 -0.18975449 C78.93113791 -0.1934552 81.21652855 -0.20068157 83.50189972 -0.21146011 C86.69827054 -0.22593821 89.89442208 -0.22797947 93.09082031 -0.22705078 C94.03956528 -0.23424133 94.98831024 -0.24143188 95.96580505 -0.24884033 C97.27403984 -0.24471634 97.27403984 -0.24471634 98.60870361 -0.24050903 C99.36457386 -0.24235262 100.12044411 -0.24419621 100.89921951 -0.24609566 C103 0 103 0 107 2 C55.52 2.495 55.52 2.495 3 3 C3.66 5.31 4.32 7.62 5 10 C4.01 10 3.02 10 2 10 C-1.10096154 4.54230769 -1.10096154 4.54230769 -0.58984375 1.796875 C-0.29787109 0.90742188 -0.29787109 0.90742188 0 0 Z " fill="#366D61" transform="translate(283,250)"/>
<path d="M0 0 C1.05385461 3.42502749 1.3572916 6.42708396 1 10 C-0.32405988 12.00615134 -1.65668346 14.00669158 -3 16 C-2.88556744 18.31026274 -2.88556744 18.31026274 -2 20 C-1.01 20 -0.02 20 1 20 C1.99 20.66 2.98 21.32 4 22 C6.51602994 21.62348012 6.51602994 21.62348012 9.125 20.6875 C10.01445312 20.40261719 10.90390625 20.11773437 11.8203125 19.82421875 C13.94583634 19.19126395 13.94583634 19.19126395 15 18 C16.75959255 17.57537105 18.53358633 17.20957714 20.3125 16.875 C21.27800781 16.68679688 22.24351562 16.49859375 23.23828125 16.3046875 C25.9149041 16.00938823 27.45901191 16.27827112 30 17 C25.96677328 18.54390666 21.92231367 20.05595017 17.875 21.5625 C16.16183594 22.21895508 16.16183594 22.21895508 14.4140625 22.88867188 C13.30546875 23.29794922 12.196875 23.70722656 11.0546875 24.12890625 C10.03874512 24.51119385 9.02280273 24.89348145 7.97607422 25.28735352 C4.57914197 26.10077806 2.36359875 25.86895442 -1 25 C-4.34011229 22.74316737 -4.93679195 21.23307967 -6 17.3125 C-6.42688961 12.23725689 -4.33053016 8.38106729 -2 4 C-1.33149616 2.66758684 -0.66426102 1.33453345 0 0 Z " fill="#2B5E4D" transform="translate(166,356)"/>
<path d="M0 0 C0.33 0 0.66 0 1 0 C1.80554191 6.35434177 2.14777871 12.54007568 2.1328125 18.94140625 C2.13376923 19.86735092 2.13472595 20.79329559 2.13571167 21.74729919 C2.13638831 23.69782581 2.13457028 25.64835474 2.13037109 27.59887695 C2.1250586 30.53016441 2.13031158 33.46129563 2.13671875 36.39257812 C2.14890687 66.70218626 2.14890687 66.70218626 0 71 C-0.66 71 -1.32 71 -2 71 C-2 71.66 -2 72.32 -2 73 C-2.66 72.67 -3.32 72.34 -4 72 C-3.505 71.175 -3.01 70.35 -2.5 69.5 C-1.02845474 66.0663944 -0.80446667 63.8097666 -0.96484375 60.12109375 C-1.00120284 57.92742882 -0.75518565 55.91889092 -0.4375 53.75 C-0.01808876 50.34271066 -0.10805106 47.31223667 -0.5 43.90625 C-1.28924722 35.18249972 -0.8577498 26.48973068 -0.5625 17.75 C-0.5091434 16.02215452 -0.45640454 14.29428985 -0.40429688 12.56640625 C-0.27664303 8.37734915 -0.14066327 4.18863961 0 0 Z " fill="#2C6656" transform="translate(258,363)"/>
<path d="M0 0 C1.36633087 3.69866636 0.60165824 5.83464456 -0.8125 9.4375 C-1.16957031 10.36433594 -1.52664062 11.29117187 -1.89453125 12.24609375 C-2.25933594 13.15488281 -2.62414062 14.06367188 -3 15 C-3.34546875 15.89203125 -3.6909375 16.7840625 -4.046875 17.703125 C-5 20 -5 20 -6.4375 22.3125 C-7.76240912 24.59134369 -8.58619144 26.53398119 -9.4375 29 C-11.23203899 33.98900631 -14.28304997 37.31472852 -18 41 C-16.96697128 33.82940083 -14.97867949 28.36798943 -11.25 22.1875 C-10.34786128 20.6336534 -9.44944105 19.07764216 -8.5546875 17.51953125 C-7.90064941 16.38185303 -7.90064941 16.38185303 -7.23339844 15.22119141 C-4.50159274 10.30156191 -2.2418472 5.1580712 0 0 Z " fill="#3A8168" transform="translate(216,260)"/>
<path d="M0 0 C2 1.3125 2 1.3125 4 4 C4.81615255 8.5646762 4.95190251 12.98730577 2.94140625 17.23828125 C1.23602177 19.68249699 -0.30277283 21.65138642 -3 23 C-5.50236916 23.09288682 -7.97662686 23.12582412 -10.47900391 23.11352539 C-11.24982803 23.11367142 -12.02065216 23.11381744 -12.81483459 23.1139679 C-15.36877229 23.11326989 -17.92263751 23.10548275 -20.4765625 23.09765625 C-22.24490316 23.09579167 -24.01324433 23.09436796 -25.78158569 23.09336853 C-30.44064759 23.0895465 -35.09967842 23.07971888 -39.75872803 23.06866455 C-44.51102274 23.05844369 -49.26332247 23.05386946 -54.015625 23.04882812 C-63.34376367 23.03809634 -72.67187925 23.02102367 -82 23 C-82 22.67 -82 22.34 -82 22 C-55.6 21.67 -29.2 21.34 -2 21 C-2.495 19.515 -2.495 19.515 -3 18 C-2.34 18 -1.68 18 -1 18 C-0.34 16.68 0.32 15.36 1 14 C1.33 14 1.66 14 2 14 C2 11.03 2 8.06 2 5 C1.34 5 0.68 5 0 5 C0 3.35 0 1.7 0 0 Z " fill="#5B9888" transform="translate(306,170)"/>
<path d="M0 0 C1 3 1 3 0.31754017 4.79628086 C-2.81067734 9.60707403 -2.81067734 9.60707403 -5.91892433 10.63397026 C-8.2797054 10.86353662 -10.55012048 10.8663171 -12.92114258 10.79467773 C-14.25360016 10.79621101 -14.25360016 10.79621101 -15.61297607 10.79777527 C-18.54139023 10.79290851 -21.46666381 10.73851257 -24.39453125 10.68359375 C-26.42761024 10.67053426 -28.46071128 10.66057175 -30.49382019 10.65357971 C-35.83898996 10.62688189 -41.18282328 10.55814369 -46.52746582 10.48065186 C-51.98362142 10.40898038 -57.43999349 10.37705981 -62.89648438 10.34179688 C-73.5982427 10.2667752 -84.29901012 10.14733949 -95 10 C-95 9.67 -95 9.34 -95 9 C-65.3 8.67 -35.6 8.34 -5 8 C-4.34 6.02 -3.68 4.04 -3 2 C-2.01 1.34 -1.02 0.68 0 0 Z " fill="#234749" transform="translate(189,269)"/>
<path d="M0 0 C1.32 0 2.64 0 4 0 C4.40386429 0.48608231 4.80772858 0.97216461 5.22383118 1.47297668 C8.15746745 3.99510799 11.72350086 3.43890313 15.41870117 3.43237305 C16.27745346 3.4425647 17.13620575 3.45275635 18.02098083 3.46325684 C20.86170912 3.49347027 23.70210067 3.50266548 26.54296875 3.51171875 C28.51167428 3.52855925 30.48036901 3.54670863 32.4490509 3.56611633 C37.63248319 3.61369073 42.81587173 3.64345195 47.99945068 3.66955566 C53.28813317 3.69932368 58.57666478 3.74586688 63.86523438 3.79101562 C74.24341078 3.87713337 84.62161817 3.94444096 95 4 C95 4.33 95 4.66 95 5 C83.76048333 5.2003358 72.52082918 5.38404039 61.28069878 5.54658794 C56.06130671 5.62258857 50.84213433 5.70428933 45.62304688 5.79907227 C40.58520358 5.89035301 35.54733553 5.96658816 30.50909805 6.03244972 C28.58812104 6.06019517 26.66721405 6.09333743 24.74642563 6.13199425 C22.05343124 6.18526506 19.36082542 6.21924228 16.66748047 6.2487793 C15.47956657 6.27898415 15.47956657 6.27898415 14.26765442 6.30979919 C9.44235388 6.33776339 6.16879561 5.69812662 2 3 C1.34 2.01 0.68 1.02 0 0 Z " fill="#417775" transform="translate(85,273)"/>
<path d="M0 0 C3.82321537 3.69988584 5.15404392 5.47894114 5.25 10.8125 C5.1975707 16.01049086 3.95034155 18.6616287 0.64526367 22.62426758 C-1.43685781 24.36529066 -2.34510298 24.29476592 -5.01171875 24.07421875 C-5.76904297 24.01943359 -6.52636719 23.96464844 -7.30664062 23.90820312 C-8.09232422 23.83537109 -8.87800781 23.76253906 -9.6875 23.6875 C-10.48478516 23.62626953 -11.28207031 23.56503906 -12.10351562 23.50195312 C-14.07016953 23.34886031 -16.03528989 23.17629291 -18 23 C-18 22.67 -18 22.34 -18 22 C-16.22925083 21.97294271 -14.45838289 21.95357805 -12.6875 21.9375 C-11.70136719 21.92589844 -10.71523438 21.91429688 -9.69921875 21.90234375 C-7 22 -7 22 -4 23 C-4 22.34 -4 21.68 -4 21 C-2.35 20.34 -0.7 19.68 1 19 C0.34 16.69 -0.32 14.38 -1 12 C-0.34 11.67 0.32 11.34 1 11 C1.65772428 7.97065509 1.65772428 7.97065509 2 5 C1.34 5 0.68 5 0 5 C0 4.34 0 3.68 0 3 C-0.66 2.67 -1.32 2.34 -2 2 C-1.34 2 -0.68 2 0 2 C0 1.34 0 0.68 0 0 Z " fill="#7BB6A6" transform="translate(393,84)"/>
<path d="M0 0 C2.64 0.33 5.28 0.66 8 1 C7.67 14.2 7.34 27.4 7 41 C6.67 41 6.34 41 6 41 C6 28.46 6 15.92 6 3 C-0.78007161 5.6675918 -0.78007161 5.6675918 -7.55200195 8.35571289 C-8.39722412 8.6830542 -9.24244629 9.01039551 -10.11328125 9.34765625 C-11.40939331 9.85824585 -11.40939331 9.85824585 -12.73168945 10.37915039 C-15 11 -15 11 -18 10 C-16.42798828 9.41992188 -16.42798828 9.41992188 -14.82421875 8.828125 C-13.44506482 8.30273303 -12.06617202 7.77665524 -10.6875 7.25 C-9.65206055 6.87101562 -9.65206055 6.87101562 -8.59570312 6.484375 C-4.65691894 4.96213957 -2.11748207 3.73196074 0 0 Z " fill="#19553C" transform="translate(214,361)"/>
<path d="M0 0 C2.375 0.6875 2.375 0.6875 5 2 C6.3125 4.625 6.3125 4.625 7 7 C6.01 7.33 5.02 7.66 4 8 C3.505 5.525 3.505 5.525 3 3 C1.63016968 3.00870117 1.63016968 3.00870117 0.23266602 3.01757812 C-13.53632727 3.07509595 -27.29700295 2.78106325 -41.0625 2.5 C-43.49023132 2.45166919 -45.91796568 2.40349101 -48.34570312 2.35546875 C-54.23050495 2.23873642 -60.11526659 2.12012912 -66 2 C-66 1.67 -66 1.34 -66 1 C-65.18789566 1.00222061 -64.37579132 1.00444122 -63.53907776 1.00672913 C-55.90171052 1.02673071 -48.2643559 1.04197345 -40.62696934 1.05181217 C-36.70011342 1.05704031 -32.77327906 1.06413669 -28.84643555 1.07543945 C-25.05985743 1.0862708 -21.2733001 1.09227736 -17.48670769 1.09487724 C-16.03895681 1.09673105 -14.59120712 1.10035081 -13.14346504 1.10573006 C-11.12242865 1.11294367 -9.10137152 1.11340808 -7.08032227 1.11352539 C-5.92782486 1.115746 -4.77532745 1.11796661 -3.58790588 1.12025452 C-1.06986853 1.29437595 -1.06986853 1.29437595 0 0 Z " fill="#459E7B" transform="translate(390,252)"/>
<path d="M0 0 C0.66 0 1.32 0 2 0 C2 0.99 2 1.98 2 3 C2.99 3 3.98 3 5 3 C7 7 9 11 11 15 C11.63502441 14.99476318 12.27004883 14.98952637 12.92431641 14.98413086 C15.82453405 14.96323744 18.7247358 14.95030066 21.625 14.9375 C22.62402344 14.92912109 23.62304688 14.92074219 24.65234375 14.91210938 C29.55020275 14.8958913 34.18656199 14.95681463 39 16 C39 16.33 39 16.66 39 17 C28.77 17 18.54 17 8 17 C6.02 13.535 6.02 13.535 4 10 C3.58234375 9.30390625 3.1646875 8.6078125 2.734375 7.890625 C0 3.33333333 0 3.33333333 0 0 Z " fill="#4D907C" transform="translate(287,261)"/>
<path d="M0 0 C0.33 0 0.66 0 1 0 C1.33 4.95 1.66 9.9 2 15 C2.66 15 3.32 15 4 15 C4.33 15.99 4.66 16.98 5 18 C10.56941217 20.27441963 15.3436989 20.05190027 21.25 19.5 C29.60194346 18.73462898 29.60194346 18.73462898 33 21 C28.45451791 22.5151607 23.94904489 22.22537663 19.1875 22.25 C18.20201172 22.270625 17.21652344 22.29125 16.20117188 22.3125 C10.77148007 22.34167229 6.58095792 22.27527426 2 19 C-0.75423605 15.56900881 -0.22817282 11.44834018 -0.125 7.25 C-0.11597656 6.55261719 -0.10695312 5.85523438 -0.09765625 5.13671875 C-0.07419888 3.42433042 -0.03833104 1.71211996 0 0 Z " fill="#215F50" transform="translate(221,416)"/>
<path d="M0 0 C3.1355525 1.56777625 3.98482397 4.70277301 5.4375 7.75 C7.85828373 12.78437117 7.85828373 12.78437117 10.6484375 17.62109375 C12.12469591 20.21947922 12.6789538 22.37857963 13.1875 25.3125 C13.34605469 26.19550781 13.50460937 27.07851563 13.66796875 27.98828125 C13.77753906 28.65214844 13.88710938 29.31601562 14 30 C13.34 30 12.68 30 12 30 C11.49487756 28.39743892 10.99608373 26.79288208 10.5 25.1875 C10.2215625 24.29417969 9.943125 23.40085937 9.65625 22.48046875 C9 20 9 20 9 17 C8.34 17 7.68 17 7 17 C7 16.34 7 15.68 7 15 C6.34 15 5.68 15 5 15 C4.15415002 13.44424022 3.32381601 11.8800388 2.5 10.3125 C2.0359375 9.44238281 1.571875 8.57226562 1.09375 7.67578125 C-0.04818792 4.88211171 -0.21504208 2.98370887 0 0 Z " fill="#316D5C" transform="translate(304,338)"/>
<path d="M0 0 C1.0625 1.8125 1.0625 1.8125 2 4 C1 7 1 7 -1 8 C-2.31782039 11.29455098 -3.44296019 14.63721525 -4.5859375 17.99609375 C-6 21 -6 21 -8.1640625 22.41015625 C-9.07285156 22.70212891 -9.07285156 22.70212891 -10 23 C-10.33 22.34 -10.66 21.68 -11 21 C-10.10375977 18.84521484 -10.10375977 18.84521484 -8.69140625 16.2109375 C-8.19189453 15.26992188 -7.69238281 14.32890625 -7.17773438 13.359375 C-6.64470703 12.37453125 -6.11167969 11.3896875 -5.5625 10.375 C-5.03333984 9.38242187 -4.50417969 8.38984375 -3.95898438 7.3671875 C-2.6463946 4.90755982 -1.32648654 2.45215293 0 0 Z " fill="#3A8069" transform="translate(194,303)"/>
<path d="M0 0 C-0.0546875 1.8046875 -0.0546875 1.8046875 -1 4 C-3.40312134 5.25249965 -5.59680104 6.21311144 -8.125 7.125 C-8.77726562 7.37636719 -9.42953125 7.62773437 -10.1015625 7.88671875 C-16.34367469 10.25228111 -22.2404819 12.32973259 -29 12 C-26.29721134 9.29721134 -23.66200412 8.99308586 -20 8 C-18.32459336 7.35561283 -16.65816784 6.68753301 -15 6 C-13.66689729 5.52019207 -12.33354393 5.04108025 -11 4.5625 C-7.36156563 3.21696578 -3.78663094 0 0 0 Z " fill="#357A66" transform="translate(212,362)"/>
<path d="M0 0 C1.38906432 3.72761565 0.56770042 5.87832446 -0.875 9.5 C-2.40393132 13.31878705 -2.40393132 13.31878705 -3.4453125 17.28125 C-3.62835938 17.8484375 -3.81140625 18.415625 -4 19 C-4.99 19.33 -5.98 19.66 -7 20 C-8.20882096 22.00016466 -8.20882096 22.00016466 -9 24 C-9.66 24 -10.32 24 -11 24 C-9.53535546 19.05394907 -7.41781701 14.7983685 -4.9375 10.3125 C-2.15217401 5.30290526 -2.15217401 5.30290526 0 0 Z " fill="#3A795E" transform="translate(216,260)"/>
<path d="M0 0 C0.33 1.32 0.66 2.64 1 4 C0.67 3.34 0.34 2.68 0 2 C-4.92825764 2.6227428 -8.80201641 3.1294941 -12.0625 7.125 C-13.0215625 8.548125 -13.0215625 8.548125 -14 10 C-15 8 -15 8 -14.3125 5.0625 C-11.21874167 -2.15626944 -6.86704521 -1.2178734 0 0 Z " fill="#49A881" transform="translate(246,229)"/>
<path d="M0 0 C0.66 0.33 1.32 0.66 2 1 C1.505 1.66 1.01 2.32 0.5 3 C-1.19781648 6.39563295 -1.18938312 8.37509257 -1.04296875 12.0703125 C-0.97050001 15.3248176 -1.55094108 18.10188216 -3 21 C-5.83582815 18.16417185 -5.36710656 16.14195524 -5.4375 12.1875 C-5.37747923 5.68524975 -5.37747923 5.68524975 -3.87890625 2.96484375 C-2.5 1.625 -2.5 1.625 0 0 Z " fill="#78AAA1" transform="translate(88,83)"/>
<path d="M0 0 C1.13277912 4.34541498 2.00087985 7.93101704 -0.046875 12.1640625 C-1.27998083 14.21682102 -2.46174584 16.16341776 -4 18 C-4.66 18 -5.32 18 -6 18 C-5.61330541 11.03949747 -3.36561591 6.0605925 0 0 Z " fill="#2B6153" transform="translate(166,356)"/>
<path d="M0 0 C0.66 0.33 1.32 0.66 2 1 C0.625 3 0.625 3 -1 5 C-1.66 5 -2.32 5 -3 5 C-2.97679688 5.81984375 -2.95359375 6.6396875 -2.9296875 7.484375 C-2.91164063 8.56203125 -2.89359375 9.6396875 -2.875 10.75 C-2.85179688 11.81734375 -2.82859375 12.8846875 -2.8046875 13.984375 C-2.99512313 16.92470106 -3.47329896 18.52361878 -5 21 C-6.92770875 19.07229125 -6.30577945 15.81648514 -6.375 13.25 C-6.35487965 6.65723199 -6.35487965 6.65723199 -4.91796875 3.99609375 C-3.5625 2.6875 -3.5625 2.6875 -1 1 C-0.67 0.67 -0.34 0.34 0 0 Z " fill="#366669" transform="translate(89,252)"/>
<path d="M0 0 C0.66 0.99 1.32 1.98 2 3 C1.071875 4.299375 1.071875 4.299375 0.125 5.625 C-1.84654784 8.75628186 -2.98966991 11.46384469 -4 15 C-4.66 15 -5.32 15 -6 15 C-6.97477898 11.27811664 -7.12816587 9.35751532 -5.8125 5.6875 C-4 3 -4 3 -1.8125 2.125 C-1.214375 2.08375 -0.61625 2.0425 0 2 C0 1.34 0 0.68 0 0 Z " fill="#3F8F68" transform="translate(229,240)"/>
<path d="M0 0 C0.66 0.33 1.32 0.66 2 1 C1.175 1.825 0.35 2.65 -0.5 3.5 C-2.60973705 6.0352806 -3.39959316 7.75534985 -3.5 11.0625 C-3.00205619 14.98380753 -2.43103326 16.93869886 0 20 C0.99 20.66 1.98 21.32 3 22 C3 22.99 3 23.98 3 25 C0.02617745 24.68137615 -0.97546878 24.02503186 -3.10546875 21.8515625 C-6.36748188 16.94172831 -5.86155807 11.68201106 -5 6 C-3.59943744 3.29579962 -2.32617909 2.0354067 0 0 Z " fill="#3F7169" transform="translate(88,167)"/>
<path d="M0 0 C1 3 1 3 0.282547 4.80018616 C-2.16783254 8.49088315 -3.19675809 9.82695397 -7.6887207 10.79467773 C-9.10155909 10.79357975 -10.51472818 10.75460613 -11.92578125 10.68359375 C-12.67337204 10.67368912 -13.42096283 10.66378448 -14.19120789 10.65357971 C-16.56701247 10.61455062 -18.93810563 10.52677742 -21.3125 10.4375 C-22.92766738 10.40237007 -24.54290759 10.37043397 -26.15820312 10.34179688 C-30.10726978 10.26482988 -34.05283777 10.14414952 -38 10 C-38 9.67 -38 9.34 -38 9 C-27.11 8.67 -16.22 8.34 -5 8 C-4.34 6.02 -3.68 4.04 -3 2 C-2.01 1.34 -1.02 0.68 0 0 Z " fill="#254B4B" transform="translate(189,269)"/>
<path d="M0 0 C0.99 0.33 1.98 0.66 3 1 C4.18858823 7.15904809 4.17931786 10.51841748 1 16 C-1 17.5 -1 17.5 -3 18 C-3.99 17.67 -4.98 17.34 -6 17 C-5.38125 16.5875 -4.7625 16.175 -4.125 15.75 C-1.82554288 13.85632943 -1.08118772 12.74158314 0 10 C0.24029959 7.40845081 0.24029959 7.40845081 0.125 4.75 C0.10695313 3.85796875 0.08890625 2.9659375 0.0703125 2.046875 C0.04710937 1.37140625 0.02390625 0.6959375 0 0 Z " fill="#478168" transform="translate(395,258)"/>
<path d="M0 0 C12.21 0 24.42 0 37 0 C37 0.33 37 0.66 37 1 C20.665 1.495 20.665 1.495 4 2 C3.67 3.98 3.34 5.96 3 8 C2.34 7.67 1.68 7.34 1 7 C0.67 4.69 0.34 2.38 0 0 Z " fill="#469A80" transform="translate(286,253)"/>
<path d="M0 0 C2.55375615 3.17494007 4.37447153 6.48103661 6.1875 10.125 C6.71730469 11.17945313 7.24710937 12.23390625 7.79296875 13.3203125 C9 16 9 16 9 18 C8.34 18 7.68 18 7 18 C7 17.34 7 16.68 7 16 C6.34 16 5.68 16 5 16 C3.23537317 12.91190305 3 11.76687864 3 8 C2.01 8 1.02 8 0 8 C0 5.36 0 2.72 0 0 Z " fill="#376D5C" transform="translate(295,320)"/>
<path d="M0 0 C2 1.3125 2 1.3125 4 4 C4.97512999 9.45382436 4.88886176 14.43128411 1.75 19.125 C-0.92337486 21.9198919 -1.47517645 22.38240271 -5 23 C-4.67 22.34 -4.34 21.68 -4 21 C-3.34 21 -2.68 21 -2 21 C-2.33 20.01 -2.66 19.02 -3 18 C-2.34 18 -1.68 18 -1 18 C-0.34 16.68 0.32 15.36 1 14 C1.33 14 1.66 14 2 14 C2 11.03 2 8.06 2 5 C1.34 5 0.68 5 0 5 C0 3.35 0 1.7 0 0 Z " fill="#4A7D71" transform="translate(306,170)"/>
<path d="M0 0 C6.875 0.875 6.875 0.875 8 2 C9.34747084 2.23075082 10.70377565 2.41153063 12.0625 2.5625 C13.361875 2.706875 14.66125 2.85125 16 3 C16 3.66 16 4.32 16 5 C17.98 5.66 19.96 6.32 22 7 C18.66472903 8.13702419 16.91003798 7.88480118 13.671875 6.56640625 C12.87265625 6.24736328 12.0734375 5.92832031 11.25 5.59960938 C10.425 5.25736328 9.6 4.91511719 8.75 4.5625 C7.90953125 4.22412109 7.0690625 3.88574219 6.203125 3.53710938 C4.13117428 2.70126562 2.06396385 1.85533351 0 1 C0 0.67 0 0.34 0 0 Z " fill="#24493D" transform="translate(291,374)"/>
<path d="M0 0 C-3.098534 1.20258256 -6.20458066 2.38440783 -9.3125 3.5625 C-10.19357422 3.90474609 -11.07464844 4.24699219 -11.98242188 4.59960938 C-12.82998047 4.91865234 -13.67753906 5.23769531 -14.55078125 5.56640625 C-15.33106689 5.86490479 -16.11135254 6.16340332 -16.9152832 6.47094727 C-19 7 -19 7 -22 6 C-20.5459375 5.5978125 -20.5459375 5.5978125 -19.0625 5.1875 C-17.5465625 4.5996875 -17.5465625 4.5996875 -16 4 C-15.67 3.01 -15.34 2.02 -15 1 C-13.25215171 0.63536268 -11.50159498 0.2836922 -9.75 -0.0625 C-8.28820312 -0.35833984 -8.28820312 -0.35833984 -6.796875 -0.66015625 C-4.08280423 -0.98993859 -2.57434547 -0.73518293 0 0 Z " fill="#2A5345" transform="translate(196,373)"/>
<path d="M0 0 C1.258125 -0.020625 2.51625 -0.04125 3.8125 -0.0625 C4.52019531 -0.07410156 5.22789062 -0.08570313 5.95703125 -0.09765625 C8 0 8 0 11 1 C10.67 1.99 10.34 2.98 10 4 C7.69 3.34 5.38 2.68 3 2 C2.67 4.97 2.34 7.94 2 11 C0 9 0 9 -0.1953125 6.8359375 C-0.17210937 6.02382813 -0.14890625 5.21171875 -0.125 4.375 C-0.10695313 3.55773437 -0.08890625 2.74046875 -0.0703125 1.8984375 C-0.04710937 1.27195312 -0.02390625 0.64546875 0 0 Z " fill="#15514A" transform="translate(259,363)"/>
<path d="M0 0 C0.33 0 0.66 0 1 0 C1.43177893 6.26079448 0.92739438 9.09075703 -3 14 C-3.99 13.67 -4.98 13.34 -6 13 C-4.58707905 8.1725201 -2.57025846 4.2837641 0 0 Z " fill="#326B5B" transform="translate(173,343)"/>
<path d="M0 0 C0.66 0 1.32 0 2 0 C3.3726682 1.97321053 4.70427617 3.97543152 6 6 C6.66 6.66 7.32 7.32 8 8 C8.125 11.125 8.125 11.125 8 14 C2.87394389 10.95207475 1.9145278 7.5295759 0.48046875 2.046875 C0.32191406 1.37140625 0.16335938 0.6959375 0 0 Z " fill="#3C896D" transform="translate(287,310)"/>
<path d="M0 0 C0.99 0.66 1.98 1.32 3 2 C3 2.66 3 3.32 3 4 C2.40832031 3.96519531 1.81664062 3.93039063 1.20703125 3.89453125 C-3.7601076 3.72436825 -6.90728689 3.83144791 -11 7 C-8.91434854 0.90348035 -6.42099564 -0.53508297 0 0 Z " fill="#457867" transform="translate(243,225)"/>
<path d="M0 0 C0.33 0.99 0.66 1.98 1 3 C-0.65 4.65 -2.3 6.3 -4 8 C-6.31 7.01 -8.62 6.02 -11 5 C-8.01758453 4.22678118 -5.02419525 3.58803797 -2 3 C-2 2.34 -2 1.68 -2 1 C-1.34 0.67 -0.68 0.34 0 0 Z " fill="#2D6552" transform="translate(318,374)"/>
<path d="M0 0 C2.20187672 2.20187672 3.28178929 4.22885682 4.6875 7 C5.14511719 7.886875 5.60273438 8.77375 6.07421875 9.6875 C6.37972656 10.450625 6.68523437 11.21375 7 12 C6.67 12.66 6.34 13.32 6 14 C5.01 14 4.02 14 3 14 C-0.44419134 4.58997722 -0.44419134 4.58997722 0 0 Z " fill="#386B59" transform="translate(278,287)"/>
<path d="M0 0 C4 0 4 0 5.47192383 1.46801758 C5.97618896 1.97357178 6.4804541 2.47912598 7 3 C9.11615844 3.50054751 9.11615844 3.50054751 11.44921875 3.51171875 C12.72055664 3.56489258 12.72055664 3.56489258 14.01757812 3.61914062 C15.33918945 3.65297852 15.33918945 3.65297852 16.6875 3.6875 C17.58017578 3.72166016 18.47285156 3.75582031 19.39257812 3.79101562 C21.59492671 3.87345648 23.79687938 3.94261551 26 4 C26 4.33 26 4.66 26 5 C23.12545466 5.25009147 20.2524034 5.4755982 17.375 5.6875 C16.56675781 5.76033203 15.75851563 5.83316406 14.92578125 5.90820312 C9.78315837 6.26358763 6.43425893 5.98118639 2 3 C1.34 2.01 0.68 1.02 0 0 Z " fill="#376868" transform="translate(85,273)"/>
<path d="M0 0 C0.99 0 1.98 0 3 0 C1.63408831 3.54243452 0.09068516 6.92627929 -1.625 10.3125 C-2.07101563 11.19550781 -2.51703125 12.07851563 -2.9765625 12.98828125 C-3.31429687 13.65214844 -3.65203125 14.31601562 -4 15 C-5.07079018 11.78762947 -4.95713639 10.0604445 -3.6875 6.9375 C-3.42324219 6.26589844 -3.15898437 5.59429687 -2.88671875 4.90234375 C-2 3 -2 3 0 0 Z " fill="#3C6865" transform="translate(195,254)"/>
<path d="M0 0 C4.93150685 4.31506849 4.93150685 4.31506849 5.25 7.5 C5.1675 8.325 5.085 9.15 5 10 C5.29749946 11.67343448 5.62127066 13.34305915 6 15 C5.67 14.01 5.34 13.02 5 12 C4.34 12 3.68 12 3 12 C0.60926555 8.17482487 0.44033448 4.40334476 0 0 Z " fill="#4C9173" transform="translate(246,228)"/>
<path d="M0 0 C0.66 0 1.32 0 2 0 C2 0.99 2 1.98 2 3 C2.99 3 3.98 3 5 3 C5.12117188 3.59167969 5.24234375 4.18335938 5.3671875 4.79296875 C6.26744643 9.03803585 7.20456621 13.02439661 9 17 C4.51695453 13.34714813 2.14614053 8.26859909 0 3 C0 2.01 0 1.02 0 0 Z " fill="#3D6C61" transform="translate(287,261)"/>
<path d="M0 0 C3.05387928 1.52693964 3.65962073 4.03617325 5.125 7.0625 C5.66382813 8.16722656 6.20265625 9.27195312 6.7578125 10.41015625 C7.16773438 11.26480469 7.57765625 12.11945313 8 13 C5.61328125 12.703125 5.61328125 12.703125 3 12 C0.74128414 7.9498888 -0.4221879 4.64406686 0 0 Z " fill="#2F584C" transform="translate(304,338)"/>
<path d="M0 0 C0.33 0 0.66 0 1 0 C1.33 4.95 1.66 9.9 2 15 C2.66 15 3.32 15 4 15 C4 16.65 4 18.3 4 20 C1 18 1 18 0 15 C-0.07029121 12.42734182 -0.09370832 9.88358569 -0.0625 7.3125 C-0.05798828 6.61060547 -0.05347656 5.90871094 -0.04882812 5.18554688 C-0.03706927 3.45699462 -0.01913454 1.72848635 0 0 Z " fill="#224F44" transform="translate(221,416)"/>
<path d="M0 0 C2.14909962 2.76854598 4.01778828 5.57834526 5.75 8.625 C6.19859375 9.40101563 6.6471875 10.17703125 7.109375 10.9765625 C7.40328125 11.64429688 7.6971875 12.31203125 8 13 C7.67 13.66 7.34 14.32 7 15 C4 11.25 4 11.25 4 9 C3.34 9 2.68 9 2 9 C0.3125 7.875 0.3125 7.875 -1 6 C-0.6875 2.8125 -0.6875 2.8125 0 0 Z " fill="#356656" transform="translate(285,301)"/>
<path d="M0 0 C0.625 1.875 0.625 1.875 1 4 C0.34 4.66 -0.32 5.32 -1 6 C-1.309375 6.825 -1.61875 7.65 -1.9375 8.5 C-3 11 -3 11 -6 13 C-5.745504 11.51793505 -5.47088238 10.03931385 -5.1875 8.5625 C-5.03667969 7.73878906 -4.88585937 6.91507812 -4.73046875 6.06640625 C-4.48941406 5.38449219 -4.24835938 4.70257813 -4 4 C-3.01 3.67 -2.02 3.34 -1 3 C-0.67 2.01 -0.34 1.02 0 0 Z " fill="#449C7A" transform="translate(221,256)"/>
<path d="M0 0 C3.62528568 -0.20140476 5.86501708 0.14223235 9 2 C9 2.66 9 3.32 9 4 C9.66 4 10.32 4 11 4 C11 4.66 11 5.32 11 6 C6.545 5.01 6.545 5.01 2 4 C2 3.01 2 2.02 2 1 C1.34 0.67 0.68 0.34 0 0 Z " fill="#336E5E" transform="translate(268,363)"/>
<path d="M0 0 C2.67455183 1.33727591 2.98881385 2.73288323 4.1875 5.4375 C4.55230469 6.24058594 4.91710937 7.04367188 5.29296875 7.87109375 C6 10 6 10 5 12 C4.01 11.67 3.02 11.34 2 11 C0.64560332 8.29120665 0.93498549 5.99066732 1 3 C0.34 2.67 -0.32 2.34 -1 2 C-0.67 1.34 -0.34 0.68 0 0 Z " fill="#478164" transform="translate(251,236)"/>
<path d="M0 0 C0.66 0.33 1.32 0.66 2 1 C1.319375 2.0828125 1.319375 2.0828125 0.625 3.1875 C-1.05070504 5.92046027 -1.05070504 5.92046027 -2.0625 8.75 C-3 11 -3 11 -5 12 C-4.67 9.69 -4.34 7.38 -4 5 C-3.34 5 -2.68 5 -2 5 C-1.34 3.35 -0.68 1.7 0 0 Z " fill="#429E79" transform="translate(209,279)"/>
<path d="M0 0 C1.32 0.33 2.64 0.66 4 1 C4.33 4.3 4.66 7.6 5 11 C4.34 11 3.68 11 3 11 C2.01 7.37 1.02 3.74 0 0 Z " fill="#429D75" transform="translate(264,267)"/>
<path d="M0 0 C1.32 0 2.64 0 4 0 C3.67 0.99 3.34 1.98 3 3 C-2.61 2.67 -8.22 2.34 -14 2 C-14 1.67 -14 1.34 -14 1 C-12.22925083 0.97294271 -10.45838289 0.95357805 -8.6875 0.9375 C-7.70136719 0.92589844 -6.71523438 0.91429688 -5.69921875 0.90234375 C-3 1 -3 1 0 2 C0 1.34 0 0.68 0 0 Z " fill="#8CC1B5" transform="translate(389,105)"/>
<path d="M0 0 C1.5625 1.8125 1.5625 1.8125 3 4 C2.67 4.99 2.34 5.98 2 7 C1.34 6.67 0.68 6.34 0 6 C-0.99 6.99 -1.98 7.98 -3 9 C-3.33 8.34 -3.66 7.68 -4 7 C-3.22265625 5.2734375 -3.22265625 5.2734375 -2.0625 3.375 C-1.381875 2.26125 -0.70125 1.1475 0 0 Z " fill="#3F8469" transform="translate(221,251)"/>
<path d="M0 0 C2.475 0.495 2.475 0.495 5 1 C6.125 4.75 6.125 4.75 5 7 C5.66 7 6.32 7 7 7 C6.67 7.99 6.34 8.98 6 10 C4.01388388 8.01388388 3.08545288 6.55856751 2 4 C2 3.01 2 2.02 2 1 C1.34 0.67 0.68 0.34 0 0 Z " fill="#4A9C7A" transform="translate(253,247)"/>
<path d="M0 0 C0.33 0 0.66 0 1 0 C0.67 2.64 0.34 5.28 0 8 C-0.66 8 -1.32 8 -2 8 C-2 8.66 -2 9.32 -2 10 C-2.99 10.33 -3.98 10.66 -5 11 C-3.77782954 6.95743617 -2.37245704 3.50711041 0 0 Z " fill="#3F8064" transform="translate(231,232)"/>
<path d="M0 0 C-0.33 1.32 -0.66 2.64 -1 4 C-3.31 4.66 -5.62 5.32 -8 6 C-6.72879117 2.18637351 -4.19078006 0 0 0 Z " fill="#32725E" transform="translate(212,362)"/>
<path d="M0 0 C0.66 0.66 1.32 1.32 2 2 C1.96712417 4.72869407 1.43602229 7.2966618 1 10 C0.01 10 -0.98 10 -2 10 C-3.39195915 5.82412255 -1.82323219 3.86525224 0 0 Z " fill="#359972" transform="translate(214,269)"/>
<path d="M0 0 C0.33 0 0.66 0 1 0 C1.36666667 5.5 1.36666667 5.5 -0.375 7.875 C-2 9 -2 9 -4 9 C-2.94124926 5.59687262 -1.99097846 2.98646769 0 0 Z " fill="#2E6354" transform="translate(182,326)"/>
<path d="M0 0 C1.0625 1.8125 1.0625 1.8125 2 4 C1.67 4.99 1.34 5.98 1 7 C-1.5625 8.1875 -1.5625 8.1875 -4 9 C-2.80100302 5.9168649 -1.52299523 2.93720508 0 0 Z " fill="#327057" transform="translate(194,303)"/>
<path d="M0 0 C2.375 0.6875 2.375 0.6875 5 2 C6.3125 4.625 6.3125 4.625 7 7 C6.01 7.33 5.02 7.66 4 8 C3.67 6.35 3.34 4.7 3 3 C2.01 2.67 1.02 2.34 0 2 C0 1.34 0 0.68 0 0 Z " fill="#457D64" transform="translate(390,252)"/>
<path d="M0 0 C0.99 0 1.98 0 3 0 C3 0.66 3 1.32 3 2 C-0.00313748 3.50156874 -2.79067522 3.09281204 -6.125 3.0625 C-7.40632813 3.05347656 -8.68765625 3.04445312 -10.0078125 3.03515625 C-11.48894531 3.01775391 -11.48894531 3.01775391 -13 3 C-13 2.67 -13 2.34 -13 2 C-12.14535156 1.93941406 -11.29070312 1.87882813 -10.41015625 1.81640625 C-8.75306641 1.69072266 -8.75306641 1.69072266 -7.0625 1.5625 C-5.96035156 1.48128906 -4.85820312 1.40007812 -3.72265625 1.31640625 C-1.08890097 1.29581916 -1.08890097 1.29581916 0 0 Z " fill="#5CA896" transform="translate(301,189)"/>
<path d="M0 0 C1.98 0.99 3.96 1.98 6 3 C6 4.32 6 5.64 6 7 C4.125 6.875 4.125 6.875 2 6 C0.75 2.9375 0.75 2.9375 0 0 Z " fill="#508A7E" transform="translate(85,185)"/>
<path d="M0 0 C0.33 0.99 0.66 1.98 1 3 C-0.9375 6.1875 -0.9375 6.1875 -3 9 C-3.66 8.67 -4.32 8.34 -5 8 C-3.375 2.25 -3.375 2.25 0 0 Z " fill="#395F5F" transform="translate(189,269)"/>
<path d="M0 0 C1 2 1 2 0.0625 5.125 C-0.288125 6.07375 -0.63875 7.0225 -1 8 C-1.66 8 -2.32 8 -3 8 C-3.33 6.68 -3.66 5.36 -4 4 C-3.01 3.67 -2.02 3.34 -1 3 C-0.67 2.01 -0.34 1.02 0 0 Z " fill="#4AA67F" transform="translate(226,247)"/>
<path d="M0 0 C2.64 0.33 5.28 0.66 8 1 C7.67 1.99 7.34 2.98 7 4 C4.69 3.34 2.38 2.68 0 2 C0 1.34 0 0.68 0 0 Z " fill="#264B43" transform="translate(262,363)"/>
<path d="M0 0 C2 1 2 1 3.125 4.0625 C3.41375 5.031875 3.7025 6.00125 4 7 C2.68 7 1.36 7 0 7 C0 4.69 0 2.38 0 0 Z " fill="#3E815C" transform="translate(268,269)"/>
<path d="M0 0 C3.71888239 0.50712033 6.73454239 1.11608215 10 3 C8 4 8 4 4.4375 3.1875 C1 2 1 2 0 0 Z " fill="#367C68" transform="translate(279,368)"/>
</svg>
